<?xml version="1.0" encoding="UTF-8"?>
<!DOCTYPE svg PUBLIC "-//W3C//DTD SVG 1.1//EN" "http://www.w3.org/Graphics/SVG/1.1/DTD/svg11.dtd">
<!-- Creator: CorelDRAW X7 -->
<svg xmlns="http://www.w3.org/2000/svg" xml:space="preserve" width="5.82677in" height="8.26772in" version="1.1" style="shape-rendering:geometricPrecision; text-rendering:geometricPrecision; image-rendering:optimizeQuality; fill-rule:evenodd; clip-rule:evenodd"
viewBox="0 0 5827 8268"
 xmlns:xlink="http://www.w3.org/1999/xlink">
 <defs>
  <style type="text/css">
   <![CDATA[
    .fil0 {fill:#00AECD}
    .fil1 {fill:#575454}
    .fil2 {fill:white}
   ]]>
  </style>
 </defs>
 <g id="Layer_x0020_1">
  <metadata id="CorelCorpID_0Corel-Layer"/>
  <path class="fil0" d="M2688 3391l-959 1093 -32 -512c-655,-94 -1157,85 -1514,600 4,-1012 664,-1541 1450,-1623l-33 -523 1088 965z"/>
  <path class="fil1" d="M3391 3062c195,0 353,157 353,351 0,194 -158,351 -353,351 -195,0 -353,-157 -353,-351 0,-194 159,-351 353,-351z"/>
  <path class="fil2" d="M4843 4657l-274 274c-72,71 -191,71 -263,0l-221 -221c-114,61 -237,107 -366,137l0 286c0,101 -84,185 -186,185l-388 0c-102,0 -186,-84 -186,-185l0 -312c-126,-38 -246,-92 -356,-161l-202 202c-72,72 -191,72 -263,0l-124 -123 3 -4 544 -620c200,232 496,379 827,379 600,0 1086,-484 1086,-1081 0,-597 -486,-1081 -1086,-1081 -300,0 -572,121 -769,318l-200 -8 -507 -449c6,-9 13,-17 20,-25l275 -273c72,-72 190,-72 262,0l222 220c114,-61 236,-107 365,-137l0 -285c1,-101 85,-185 187,-185l388 0c102,0 185,84 185,185l0 312c127,38 247,93 356,161l203 -202c72,-72 191,-72 263,0l274 273c72,72 72,190 0,262l-221 220c61,114 108,236 138,364l286 0c102,0 186,84 186,185l0 387c0,101 -84,185 -186,185l-312 0c-38,126 -93,245 -162,354l203 202c72,71 72,189 -1,261z"/>
 </g>
</svg>
