<?xml version="1.0" encoding="UTF-8"?>
<!DOCTYPE svg PUBLIC "-//W3C//DTD SVG 1.1//EN" "http://www.w3.org/Graphics/SVG/1.1/DTD/svg11.dtd">
<!-- Creator: CorelDRAW X7 -->
<svg xmlns="http://www.w3.org/2000/svg" xml:space="preserve" width="8.26772in" height="5.82677in" version="1.1" style="shape-rendering:geometricPrecision; text-rendering:geometricPrecision; image-rendering:optimizeQuality; fill-rule:evenodd; clip-rule:evenodd"
viewBox="0 0 8268 5827"
 xmlns:xlink="http://www.w3.org/1999/xlink">
 <defs>
  <style type="text/css">
   <![CDATA[
    .fil2 {fill:black}
    .fil0 {fill:#00AECD}
    .fil1 {fill:#393939}
   ]]>
  </style>
 </defs>
 <g id="Layer_x0020_1">
  <metadata id="CorelCorpID_0Corel-Layer"/>
  <g id="_1522748851024">
   <path class="fil0" d="M4099 2899l-622 710 -21 -333c-425,-61 -750,56 -982,389 3,-656 431,-1000 941,-1053l-22 -339 706 626z"/>
   <path class="fil1" d="M4555 2685c126,0 229,102 229,228 0,126 -103,228 -229,228 -126,0 -229,-102 -229,-228 0,-126 103,-228 229,-228z"/>
   <path class="fil2" d="M5497 3721l-178 177c-47,47 -124,47 -171,0l-143 -143c-74,40 -154,70 -237,89l0 185c0,66 -55,120 -121,120l-252 0c-66,0 -120,-54 -120,-120l0 -202c-82,-24 -160,-60 -231,-104l-131 131c-47,46 -124,46 -171,0l-80 -80 2 -3 353 -402c129,150 321,246 536,246 389,0 704,-314 704,-701 0,-388 -315,-702 -704,-702 -195,0 -371,79 -499,206l-130 -5 -329 -292c5,-5 9,-10 14,-16l178 -177c46,-46 123,-46 170,0l144 143c74,-40 153,-70 237,-89l0 -185c0,-66 55,-120 121,-120l251 0c67,0 121,54 121,120l0 202c82,25 159,61 231,105l131 -131c47,-47 124,-47 171,0l178 177c46,47 46,124 0,170l-144 143c40,74 70,153 89,236l186 0c66,0 121,55 121,120l0 251c0,66 -55,120 -121,120l-202 0c-25,82 -61,159 -106,230l132 131c47,47 47,123 0,170z"/>
  </g>
 </g>
</svg>
