<?xml version="1.0" encoding="UTF-8"?>
<!DOCTYPE svg PUBLIC "-//W3C//DTD SVG 1.1//EN" "http://www.w3.org/Graphics/SVG/1.1/DTD/svg11.dtd">
<!-- Creator: CorelDRAW X7 -->
<svg xmlns="http://www.w3.org/2000/svg" xml:space="preserve" width="8.26772in" height="5.82677in" version="1.1" style="shape-rendering:geometricPrecision; text-rendering:geometricPrecision; image-rendering:optimizeQuality; fill-rule:evenodd; clip-rule:evenodd"
viewBox="0 0 8268 5827"
 xmlns:xlink="http://www.w3.org/1999/xlink">
 <defs>
  <style type="text/css">
   <![CDATA[
    .fil0 {fill:#00AECD;fill-rule:nonzero}
    .fil1 {fill:white;fill-rule:nonzero}
   ]]>
  </style>
 </defs>
 <g id="Layer_x0020_1">
  <metadata id="CorelCorpID_0Corel-Layer"/>
  <g id="_1522656228032">
   <path class="fil0" d="M5363 2913c0,679 -550,1229 -1229,1229 -679,0 -1229,-550 -1229,-1229 0,-678 550,-1229 1229,-1229 679,0 1229,551 1229,1229z"/>
   <path class="fil1" d="M4659 2783l14 0 -14 0zm-507 733l-8 12c5,3 11,3 15,0l-7 -12zm-508 -733l-14 0 14 0zm508 -508l0 14 0 -14zm493 508c0,192 -123,372 -250,505 -63,66 -125,120 -173,158 -23,19 -43,33 -57,43 -7,5 -12,9 -16,12 -1,1 -3,2 -4,3 0,0 0,0 -1,0 0,0 0,0 0,0 0,0 0,0 0,0 0,0 0,0 0,0 0,0 0,0 8,12 7,12 7,12 7,12 0,0 0,0 0,0 0,-1 0,-1 0,-1 1,0 1,0 1,0 0,0 0,0 1,-1 1,0 2,-1 4,-3 4,-2 10,-6 17,-11 14,-10 34,-25 58,-44 48,-38 112,-93 176,-161 127,-135 257,-321 257,-524l-28 0zm-493 733c7,-12 7,-12 7,-12 0,0 0,0 0,0 0,0 0,0 0,0 0,0 0,0 0,0 0,0 -1,0 -1,0 -1,-1 -2,-2 -4,-3 -4,-3 -9,-7 -16,-12 -14,-10 -33,-24 -57,-43 -47,-38 -110,-92 -173,-158 -126,-133 -250,-313 -250,-505l-28 0c0,203 130,389 258,524 64,68 128,123 176,161 24,19 44,34 58,44 7,5 12,9 16,11 2,2 3,3 4,3 1,1 1,1 2,1 0,0 0,0 0,0 0,0 0,0 0,1 0,0 0,0 0,0 0,0 0,0 8,-12zm-494 -733c0,-131 52,-257 145,-349l-20 -20c-98,98 -153,230 -153,369l28 0zm145 -349c92,-93 218,-145 349,-145l0 -28c-139,0 -271,55 -369,153l20 20zm349 -145c131,0 256,52 349,145l19 -20c-97,-98 -230,-153 -368,-153l0 28zm349 145c92,92 144,218 144,349l28 0c0,-139 -55,-271 -153,-369l-19 20z"/>
   <path class="fil1" d="M4307 2783c0,86 -70,155 -155,155l0 28c101,0 183,-82 183,-183l-28 0zm-155 155c-86,0 -156,-69 -156,-155l-27 0c0,101 82,183 183,183l0 -28zm-156 -155c0,-86 70,-156 156,-156l0 -27c-101,0 -183,82 -183,183l27 0zm156 -156c85,0 155,70 155,156l28 0c0,-101 -82,-183 -183,-183l0 27z"/>
  </g>
 </g>
</svg>
