<?xml version="1.0" encoding="UTF-8"?>
<!DOCTYPE svg PUBLIC "-//W3C//DTD SVG 1.1//EN" "http://www.w3.org/Graphics/SVG/1.1/DTD/svg11.dtd">
<!-- Creator: CorelDRAW X7 -->
<svg xmlns="http://www.w3.org/2000/svg" xml:space="preserve" width="8.26772in" height="5.82677in" version="1.1" style="shape-rendering:geometricPrecision; text-rendering:geometricPrecision; image-rendering:optimizeQuality; fill-rule:evenodd; clip-rule:evenodd"
viewBox="0 0 8268 5827"
 xmlns:xlink="http://www.w3.org/1999/xlink">
 <defs>
  <style type="text/css">
   <![CDATA[
    .fil0 {fill:#00AECD;fill-rule:nonzero}
    .fil1 {fill:white;fill-rule:nonzero}
   ]]>
  </style>
 </defs>
 <g id="Layer_x0020_1">
  <metadata id="CorelCorpID_0Corel-Layer"/>
  <g id="_1522656220512">
   <path class="fil0" d="M5363 2913c0,679 -550,1229 -1229,1229 -679,0 -1229,-550 -1229,-1229 0,-678 550,-1229 1229,-1229 679,0 1229,551 1229,1229z"/>
   <path class="fil1" d="M4321 2332c-15,0 -29,6 -40,16 -11,11 -17,25 -17,40l0 169 -225 0c-63,0 -113,50 -113,113l0 677c0,62 50,113 113,113l282 0c62,0 113,-51 113,-113l0 -677c0,-42 -23,-78 -57,-97l0 -185c0,-15 -6,-29 -16,-40 -11,-10 -25,-16 -40,-16zm-282 338l282 0 0 282 -282 0 0 -282zm0 395l56 0 0 56 -56 0 0 -56zm113 0l56 0 0 56 -56 0 0 -56zm112 0l57 0 0 56 -57 0 0 -56zm-225 113l56 0 0 56 -56 0 0 -56zm113 0l56 0 0 56 -56 0 0 -56zm112 0l57 0 0 56 -57 0 0 -56zm-225 112l56 0 0 57 -56 0 0 -57zm113 0l56 0 0 57 -56 0 0 -57zm112 0l57 0 0 57 -57 0 0 -57z"/>
  </g>
 </g>
</svg>
